# xmcd
# 
# Track frame offsets:
#     150
#     11449
#     36671
#     58175
#     80330
#     93637
#     114732
#     136350
#     151894
#     171842
#     182751
#     212071
#     231958
# 
# Disc length: 3266
# 
# Revision: 3
# Processed by: cddbd v1.5.2PL0 Copyright (c) Steve Scherf et al.
# Submitted via: fre:ac v1.0.17
# 
DISCID=b30cc00d
DTITLE=Tingvall Trio - Vattensaga
DYEAR=2009
DGENRE=Jazz
TTITLE0=Våg In
TTITLE1=Vattensaga
TTITLE2=Valsång
TTITLE3=Suite Kuhla
TTITLE4=Tveklöst
TTITLE5=Hajskraj
TTITLE6=Rödblå
TTITLE7=Under Ytan
TTITLE8=Pinocchio
TTITLE9=Makuschla
TTITLE10=Vågor
TTITLE11=Flaskpost
TTITLE12=Våg Ut
EXTD=
EXTT0=
EXTT1=
EXTT2=
EXTT3=
EXTT4=
EXTT5=
EXTT6=
EXTT7=
EXTT8=
EXTT9=
EXTT10=
EXTT11=
EXTT12=
PLAYORDER=
